# The Great Editor v0.0.1
mtllib floor_1.mtl
o floor_1
v 4.914208044325911 -3.4330293109631995 0
v 4.914208044325911 -3.4330293109631995 -0.1
v 5.192157158712688 -13.407032236813066 0
v 5.192157158712688 -13.407032236813066 -0.1
v -4.852083207249709 -13.546942186572672 0
v -4.852083207249709 -13.546942186572672 -0.1
v -4.791258901692123 -32.04357010919483 0
v -4.791258901692123 -32.04357010919483 -0.1
v 54.923401445271466 -31.692937479429045 0
v 54.923401445271466 -31.692937479429045 -0.1
v 54.5830787492467 -3.014430549676021 0
v 54.5830787492467 -3.014430549676021 -0.1
v 15.560892136250228 -10.780676607011578 0
v 15.560892136250228 -10.780676607011578 -0.1
v 17.16089213625023 -10.780676607011578 0
v 17.16089213625023 -10.780676607011578 -0.1
v 17.16089213625023 -12.38067660701158 0
v 17.16089213625023 -12.38067660701158 -0.1
v 15.560892136250228 -12.38067660701158 0
v 15.560892136250228 -12.38067660701158 -0.1
vt 4.914208044325911 -3.4330293109631995 0
vt 5.192157158712688 -13.407032236813066 0
vt -4.852083207249709 -13.546942186572672 0
vt -4.791258901692123 -32.04357010919483 0
vt 54.923401445271466 -31.692937479429045 0
vt 54.5830787492467 -3.014430549676021 0
vt 15.560892136250228 -10.780676607011578 0
vt 17.16089213625023 -10.780676607011578 0
vt 17.16089213625023 -12.38067660701158 0
vt 15.560892136250228 -12.38067660701158 0
vn 0 0 1
vn 0 0 -1
usemtl floor_1
s off
f 7/4/1 3/2/1 5/3/1
f 6/3/2 4/2/2 8/4/2
f 3/2/1 13/7/1 1/1/1
f 2/1/2 14/7/2 4/2/2
f 13/7/1 15/8/1 1/1/1
f 2/1/2 16/8/2 14/7/2
f 15/8/1 11/6/1 1/1/1
f 2/1/2 12/6/2 16/8/2
f 15/8/1 17/9/1 11/6/1
f 12/6/2 18/9/2 16/8/2
f 17/9/1 9/5/1 11/6/1
f 12/6/2 10/5/2 18/9/2
f 9/5/1 17/9/1 7/4/1
f 8/4/2 18/9/2 10/5/2
f 17/9/1 19/10/1 7/4/1
f 8/4/2 20/10/2 18/9/2
f 19/10/1 3/2/1 7/4/1
f 8/4/2 4/2/2 20/10/2
f 19/10/1 13/7/1 3/2/1
f 4/2/2 14/7/2 20/10/2
