# The Great Editor v0.0.1
mtllib floor_2.mtl
o floor_2
v 9.509791538916016 -13.440393020036524 0
v 9.509791538916016 -13.440393020036524 -0.1
v 24.124862679855088 -13.34474041004336 0
v 24.124862679855088 -13.34474041004336 -0.1
v 36.15320450206028 -13.469154962466211 0
v 36.15320450206028 -13.469154962466211 -0.1
v 47.62775705985657 -13.381128097499808 0
v 47.62775705985657 -13.381128097499808 -0.1
v 55.0544318385866 -13.338054825362368 0
v 55.0544318385866 -13.338054825362368 -0.1
v 55.00693633074872 -32.18304664491056 0
v 55.00693633074872 -32.18304664491056 -0.1
v 36.663676749056904 -32.18304664491056 0
v 36.663676749056904 -32.18304664491056 -0.1
v 36.67840592780721 -31.725536764058667 0
v 36.67840592780721 -31.725536764058667 -0.1
v 12.61047518000121 -31.68016532218714 0
v 12.61047518000121 -31.68016532218714 -0.1
v 12.64484326375194 -30.514018285903568 0
v 12.64484326375194 -30.514018285903568 -0.1
v 12.664342885738169 -28.546018936943433 0
v 12.664342885738169 -28.546018936943433 -0.1
v 13.05402193868082 -16.32891380976084 0
v 13.05402193868082 -16.32891380976084 -0.1
v 13.034034826144936 -14.73408847656216 0
v 13.034034826144936 -14.73408847656216 -0.1
v 9.509791538916016 -14.689483091268661 0
v 9.509791538916016 -14.689483091268661 -0.1
vt 9.509791538916016 -13.440393020036524 0
vt 24.124862679855088 -13.34474041004336 0
vt 36.15320450206028 -13.469154962466211 0
vt 47.62775705985657 -13.381128097499808 0
vt 55.0544318385866 -13.338054825362368 0
vt 55.00693633074872 -32.18304664491056 0
vt 36.663676749056904 -32.18304664491056 0
vt 36.67840592780721 -31.725536764058667 0
vt 12.61047518000121 -31.68016532218714 0
vt 12.64484326375194 -30.514018285903568 0
vt 12.664342885738169 -28.546018936943433 0
vt 13.05402193868082 -16.32891380976084 0
vt 13.034034826144936 -14.73408847656216 0
vt 9.509791538916016 -14.689483091268661 0
vn 0 0 1
vn 0 0 -1
usemtl floor_2
s off
f 27/14/1 25/13/1 1/1/1
f 2/1/2 26/13/2 28/14/2
f 25/13/1 3/2/1 1/1/1
f 2/1/2 4/2/2 26/13/2
f 25/13/1 23/12/1 3/2/1
f 4/2/2 24/12/2 26/13/2
f 23/12/1 21/11/1 3/2/1
f 4/2/2 22/11/2 24/12/2
f 21/11/1 15/8/1 3/2/1
f 4/2/2 16/8/2 22/11/2
f 15/8/1 5/3/1 3/2/1
f 4/2/2 6/3/2 16/8/2
f 15/8/1 7/4/1 5/3/1
f 6/3/2 8/4/2 16/8/2
f 15/8/1 11/6/1 7/4/1
f 8/4/2 12/6/2 16/8/2
f 11/6/1 9/5/1 7/4/1
f 8/4/2 10/5/2 12/6/2
f 11/6/1 15/8/1 13/7/1
f 14/7/2 16/8/2 12/6/2
f 15/8/1 19/10/1 17/9/1
f 18/9/2 20/10/2 16/8/2
f 19/10/1 15/8/1 21/11/1
f 22/11/2 16/8/2 20/10/2
