# The Great Editor v0.0.1
mtllib floor_1.mtl
o floor_1
v 0.7429856281944934 -11.302490160304451 0
v 0.7429856281944934 -11.302490160304451 -0.1
v 8.050568377675603 -11.37804152571062 0
v 8.050568377675603 -11.37804152571062 -0.1
v 8.050568377675603 -12.435465864317756 0
v 8.050568377675603 -12.435465864317756 -0.1
v 11.034036674251395 -12.47322680816688 0
v 11.034036674251395 -12.47322680816688 -0.1
v 11.05095687859909 -13.823335308739622 0
v 11.05095687859909 -13.823335308739622 -0.1
v 10.721071849234894 -24.16579547741391 0
v 10.721071849234894 -24.16579547741391 -0.1
v 10.70456433279812 -25.831816573795436 0
v 10.70456433279812 -25.831816573795436 -0.1
v 10.675469835078301 -26.81902501213043 0
v 10.675469835078301 -26.81902501213043 -0.1
v 0.7010683275282539 -26.846291891959034 0
v 0.7010683275282539 -26.846291891959034 -0.1
v 0.7010683275282539 -15.028914607366813 0
v 0.7010683275282539 -15.028914607366813 -0.1
v 4.001510417398053 -14.631702493106914 0
v 4.001510417398053 -14.631702493106914 -0.1
v 9.527696321687744 -14.662919385797172 0
v 9.527696321687744 -14.662919385797172 -0.1
v 3.985887232198962 -17.51969249372072 0
v 3.985887232198962 -17.51969249372072 -0.1
v 9.496479428997487 -18.268986351410692 0
v 9.496479428997487 -18.268986351410692 -0.1
v 9.496479428997487 -19.018309686808593 0
v 9.496479428997487 -19.018309686808593 -0.1
vt 0.7429856281944934 -11.302490160304451 0
vt 8.050568377675603 -11.37804152571062 0
vt 8.050568377675603 -12.435465864317756 0
vt 11.034036674251395 -12.47322680816688 0
vt 11.05095687859909 -13.823335308739622 0
vt 10.721071849234894 -24.16579547741391 0
vt 10.70456433279812 -25.831816573795436 0
vt 10.675469835078301 -26.81902501213043 0
vt 0.7010683275282539 -26.846291891959034 0
vt 0.7010683275282539 -15.028914607366813 0
vt 4.001510417398053 -14.631702493106914 0
vt 9.527696321687744 -14.662919385797172 0
vt 3.985887232198962 -17.51969249372072 0
vt 9.496479428997487 -18.268986351410692 0
vt 9.496479428997487 -19.018309686808593 0
vn 0 0 1
vn 0 0 -1
usemtl floor_1
s off
f 19/10/1 21/11/1 1/1/1
f 2/1/2 22/11/2 20/10/2
f 21/11/1 3/2/1 1/1/1
f 2/1/2 4/2/2 22/11/2
f 21/11/1 5/3/1 3/2/1
f 4/2/2 6/3/2 22/11/2
f 5/3/1 23/12/1 7/4/1
f 8/4/2 24/12/2 6/3/2
f 23/12/1 9/5/1 7/4/1
f 8/4/2 10/5/2 24/12/2
f 15/8/1 13/7/1 17/9/1
f 18/9/2 14/7/2 16/8/2
f 13/7/1 11/6/1 17/9/1
f 18/9/2 12/6/2 14/7/2
f 11/6/1 25/13/1 17/9/1
f 18/9/2 26/13/2 12/6/2
f 25/13/1 19/10/1 17/9/1
f 18/9/2 20/10/2 26/13/2
f 25/13/1 21/11/1 19/10/1
f 20/10/2 22/11/2 26/13/2
f 23/12/1 5/3/1 21/11/1
f 22/11/2 6/3/2 24/12/2
f 27/14/1 9/5/1 23/12/1
f 24/12/2 10/5/2 28/14/2
f 27/14/1 29/15/1 9/5/1
f 10/5/2 30/15/2 28/14/2
f 29/15/1 11/6/1 9/5/1
f 10/5/2 12/6/2 30/15/2
f 29/15/1 25/13/1 11/6/1
f 12/6/2 26/13/2 30/15/2
